<svg xmlns="http://www.w3.org/2000/svg" viewBox="0 0 512 512">
  <rect width="512" height="512" fill="#080c14"/>
  <defs>
    <linearGradient id="og5" x1="0%" y1="0%" x2="100%" y2="100%">
      <stop offset="0%" stop-color="#f5c842"/>
      <stop offset="55%" stop-color="#f07830"/>
      <stop offset="100%" stop-color="#d4611a"/>
    </linearGradient>
    <radialGradient id="glow5" cx="50%" cy="50%" r="50%">
      <stop offset="0%" stop-color="rgba(240,120,48,0.15)"/>
      <stop offset="100%" stop-color="rgba(240,120,48,0)"/>
    </radialGradient>
    <filter id="gf5">
      <feGaussianBlur stdDeviation="6" result="b"/>
      <feMerge><feMergeNode in="b"/><feMergeNode in="SourceGraphic"/></feMerge>
    </filter>
  </defs>

  <!-- Background glow -->
  <ellipse cx="256" cy="256" rx="200" ry="200" fill="url(#glow5)"/>

  <!-- Shield -->
  <path d="M256 64 C214 64 148 82 108 106 L76 124 L76 278 C76 346 154 392 256 436 C358 392 436 346 436 278 L436 124 L404 106 C364 82 298 64 256 64 Z"
    fill="#0d1422" stroke="url(#og5)" stroke-width="5"/>
  
  <!-- Inner border subtle -->
  <path d="M256 84 C218 84 158 100 122 122 L94 138 L94 276 C94 340 166 384 256 424 C346 384 418 340 418 276 L418 138 L390 122 C354 100 294 84 256 84 Z"
    fill="none" stroke="rgba(240,120,48,0.08)" stroke-width="2"/>

  <!-- "8" numeral — large -->
  <path d="M256 138 C228 138 207 156 207 180 C207 198 217 212 233 220 C217 228 204 244 204 264 C204 296 227 316 256 316 C285 316 308 296 308 264 C308 244 295 228 279 220 C295 212 305 198 305 180 C305 156 284 138 256 138 Z"
    fill="none" stroke="url(#og5)" stroke-width="10" stroke-linejoin="round" filter="url(#gf5)"/>

  <!-- Corner brackets -->
  <polyline points="96,148 96,116 128,116" fill="none" stroke="#f07830" stroke-width="6" stroke-linecap="round" stroke-linejoin="round"/>
  <polyline points="416,148 416,116 384,116" fill="none" stroke="#f07830" stroke-width="6" stroke-linecap="round" stroke-linejoin="round"/>

  <!-- Bottom accent -->
  <circle cx="256" cy="420" r="8" fill="#f07830"/>
  <line x1="256" y1="420" x2="236" y2="407" stroke="rgba(240,120,48,0.4)" stroke-width="3" stroke-linecap="round"/>
  <line x1="256" y1="420" x2="276" y2="407" stroke="rgba(240,120,48,0.4)" stroke-width="3" stroke-linecap="round"/>
</svg>